<?xml version="1.0" encoding="UTF-8" standalone="no"?>
<svg
   xmlns:dc="http://purl.org/dc/elements/1.1/"
   xmlns:cc="http://creativecommons.org/ns#"
   xmlns:rdf="http://www.w3.org/1999/02/22-rdf-syntax-ns#"
   xmlns:svg="http://www.w3.org/2000/svg"
   xmlns="http://www.w3.org/2000/svg"
   xmlns:xlink="http://www.w3.org/1999/xlink"
   xmlns:sodipodi="http://sodipodi.sourceforge.net/DTD/sodipodi-0.dtd"
   xmlns:inkscape="http://www.inkscape.org/namespaces/inkscape"
   width="285"
   height="55.25"
   viewBox="0 0 285 55.25"
   version="1.1"
   id="svg58"
   sodipodi:docname="logo.svg"
   inkscape:version="0.92.4 5da689c313, 2019-01-14">
  <metadata
     id="metadata62">
    <rdf:RDF>
      <cc:Work
         rdf:about="">
        <dc:format>image/svg+xml</dc:format>
        <dc:type
           rdf:resource="http://purl.org/dc/dcmitype/StillImage" />
        <dc:title></dc:title>
      </cc:Work>
    </rdf:RDF>
  </metadata>
  <sodipodi:namedview
     pagecolor="#ffffff"
     bordercolor="#666666"
     borderopacity="1"
     objecttolerance="10"
     gridtolerance="10"
     guidetolerance="10"
     inkscape:pageopacity="0"
     inkscape:pageshadow="2"
     inkscape:window-width="1513"
     inkscape:window-height="857"
     id="namedview60"
     showgrid="false"
     inkscape:zoom="3.7104601"
     inkscape:cx="289.70914"
     inkscape:cy="26.1205"
     inkscape:window-x="87"
     inkscape:window-y="17"
     inkscape:window-maximized="1"
     inkscape:current-layer="svg58" />
  <defs
     id="defs3">
    <path
       id="a"
       d="M 2.716,4.385 H 168.049 V 51.1 H 2.716 Z"
       inkscape:connector-curvature="0" />
  </defs>
  <clipPath
     id="b">
    <use
       xlink:href="#a"
       overflow="visible"
       id="use5"
       style="overflow:visible"
       x="0"
       y="0"
       width="100%"
       height="100%" />
  </clipPath>
  <path
     clip-path="url(#b)"
     d="m 24.691,7.159 c -5.866,0 -11.384,2.289 -15.542,6.438 -4.147,4.149 -6.435,9.669 -6.435,15.535 0,5.876 2.287,11.396 6.435,15.539 4.158,4.147 9.675,6.429 15.542,6.429 5.87,0 11.384,-2.281 15.531,-6.429 4.158,-4.144 6.44,-9.663 6.44,-15.539 0,-5.866 -2.282,-11.386 -6.44,-15.535 -4.146,-4.15 -9.66,-6.438 -15.531,-6.438 m 0,41.857 c -10.965,0 -19.885,-8.915 -19.885,-19.884 0,-10.962 8.919,-19.88 19.885,-19.88 10.961,0 19.883,8.918 19.883,19.88 0.001,10.969 -8.922,19.884 -19.883,19.884"
     id="path8"
     inkscape:connector-curvature="0" />
  <path
     clip-path="url(#b)"
     d="m 18.068,16.063 v -3.077 h -1.921 v 3.552 c -1.301,0.401 -2.056,0.815 -1.932,1.069 0.431,-0.118 1.115,-0.169 1.932,-0.121 v 18.495 c -1.962,3.833 0.861,9.698 0.861,9.698 0,0 -2.124,-6.299 2.6,-9.272 C 23.945,33.675 38.91,34.956 38.854,26.513 38.789,14.551 24.986,14.622 18.068,16.063 m 6.177,11.597 c -0.673,3.185 -4.147,4.845 -6.177,6.224 V 17.779 c 3.459,0.83 7.525,3.489 6.177,9.881"
     id="path10"
     inkscape:connector-curvature="0"
     sodipodi:nodetypes="ccccccccccccccc" />
  <defs
     id="defs15">
    <path
       id="c"
       d="M 2.716,4.385 H 168.049 V 51.1 H 2.716 Z"
       inkscape:connector-curvature="0" />
  </defs>
  <clipPath
     id="d">
    <use
       xlink:href="#c"
       overflow="visible"
       id="use17"
       style="overflow:visible"
       x="0"
       y="0"
       width="100%"
       height="100%" />
  </clipPath>
  <defs
     id="defs25">
    <path
       id="e"
       d="M 2.716,4.385 H 168.049 V 51.1 H 2.716 Z"
       inkscape:connector-curvature="0" />
  </defs>
  <clipPath
     id="f">
    <use
       xlink:href="#e"
       overflow="visible"
       id="use27"
       style="overflow:visible"
       x="0"
       y="0"
       width="100%"
       height="100%" />
  </clipPath>
  <g
     aria-label="VYŠETŘOVÁNÍ"
     transform="matrix(1.4853315,0,0,1.5979283,-29.272153,0.71529179)"
     style="font-style:normal;font-variant:normal;font-weight:normal;font-stretch:normal;font-size:19.64533424px;line-height:125%;font-family:'Bebas Neue';-inkscape-font-specification:'Bebas Neue, Normal';font-variant-ligatures:normal;font-variant-caps:normal;font-variant-numeric:normal;font-feature-settings:normal;text-align:start;letter-spacing:0px;word-spacing:0px;writing-mode:lr-tb;text-anchor:start;fill:#000000;fill-opacity:1;stroke:none;stroke-width:1.12259877px;stroke-linecap:butt;stroke-linejoin:miter;stroke-opacity:1"
     id="text875">
    <path
       d="m 57.355686,24.334799 h 2.868219 L 62.30631,10.583065 h -1.984178 l -1.414465,10.667416 h -0.03929 L 57.453913,10.583065 h -2.180632 z"
       style="font-style:normal;font-variant:normal;font-weight:normal;font-stretch:normal;font-size:19.64533424px;font-family:'Bebas Neue';-inkscape-font-specification:'Bebas Neue, Normal';font-variant-ligatures:normal;font-variant-caps:normal;font-variant-numeric:normal;font-feature-settings:normal;text-align:start;writing-mode:lr-tb;text-anchor:start;stroke-width:1.12259877px"
       id="path831"
       inkscape:connector-curvature="0" />
    <path
       d="m 65.347654,24.334799 h 2.160987 v -5.85431 l 2.612829,-7.897424 h -2.102051 l -1.4734,5.048851 h -0.03929 l -1.4734,-5.048851 h -2.298504 l 2.61283,7.897424 z"
       style="font-style:normal;font-variant:normal;font-weight:normal;font-stretch:normal;font-size:19.64533424px;font-family:'Bebas Neue';-inkscape-font-specification:'Bebas Neue, Normal';font-variant-ligatures:normal;font-variant-caps:normal;font-variant-numeric:normal;font-feature-settings:normal;text-align:start;writing-mode:lr-tb;text-anchor:start;stroke-width:1.12259877px"
       id="path833"
       inkscape:connector-curvature="0" />
    <path
       d="m 72.634231,9.6597341 h 2.043115 L 76.288264,7.4005207 H 74.657701 L 73.655789,8.4810141 72.653877,7.4005207 h -1.630563 z m 0.982267,14.8715179 c 2.121696,0 3.261126,-1.257301 3.261126,-3.496869 0,-1.709144 -0.569715,-2.809283 -2.377086,-4.400555 -1.414464,-1.237656 -1.866307,-1.964534 -1.866307,-2.966446 0,-0.942976 0.392907,-1.316237 1.080494,-1.316237 0.687587,0 1.080493,0.373261 1.080493,1.355528 v 0.707232 h 2.043115 V 13.84419 c 0,-2.200277 -1.041203,-3.457579 -3.143253,-3.457579 -2.102051,0 -3.221835,1.257302 -3.221835,3.418289 0,1.571626 0.58936,2.69141 2.39673,4.282683 1.414465,1.237656 1.846662,1.964533 1.846662,3.103962 0,1.021558 -0.432197,1.375174 -1.119784,1.375174 -0.687587,0 -1.119784,-0.353616 -1.119784,-1.335883 V 20.28786 h -2.043115 v 0.785813 c 0,2.200278 1.060848,3.457579 3.182544,3.457579 z"
       style="font-style:normal;font-variant:normal;font-weight:normal;font-stretch:normal;font-size:19.64533424px;font-family:'Bebas Neue';-inkscape-font-specification:'Bebas Neue, Normal';font-variant-ligatures:normal;font-variant-caps:normal;font-variant-numeric:normal;font-feature-settings:normal;text-align:start;writing-mode:lr-tb;text-anchor:start;stroke-width:1.12259877px"
       id="path835"
       inkscape:connector-curvature="0" />
    <path
       d="m 78.097476,24.334799 h 5.8936 v -1.964534 h -3.732614 v -4.223746 h 2.966446 v -1.964534 h -2.966446 v -3.634387 h 3.732614 v -1.964533 h -5.8936 z"
       style="font-style:normal;font-variant:normal;font-weight:normal;font-stretch:normal;font-size:19.64533424px;font-family:'Bebas Neue';-inkscape-font-specification:'Bebas Neue, Normal';font-variant-ligatures:normal;font-variant-caps:normal;font-variant-numeric:normal;font-feature-settings:normal;text-align:start;writing-mode:lr-tb;text-anchor:start;stroke-width:1.12259877px"
       id="path837"
       inkscape:connector-curvature="0" />
    <path
       d="m 86.923756,24.334799 h 2.160987 V 12.547598 h 2.259213 v -1.964533 h -6.679413 v 1.964533 h 2.259213 z"
       style="font-style:normal;font-variant:normal;font-weight:normal;font-stretch:normal;font-size:19.64533424px;font-family:'Bebas Neue';-inkscape-font-specification:'Bebas Neue, Normal';font-variant-ligatures:normal;font-variant-caps:normal;font-variant-numeric:normal;font-feature-settings:normal;text-align:start;writing-mode:lr-tb;text-anchor:start;stroke-width:1.12259877px"
       id="path839"
       inkscape:connector-curvature="0" />
    <path
       d="m 94.335574,9.6597341 h 2.043115 L 97.989607,7.4005207 H 96.359044 L 95.357132,8.4810141 94.35522,7.4005207 H 92.724657 Z M 92.371041,24.334799 h 2.160987 v -5.8936 h 0.746522 c 0.982267,0 1.355529,0.412552 1.355529,1.689498 V 22.6453 c 0,1.119784 0.07858,1.335883 0.196453,1.689499 h 2.200277 C 98.814711,23.82402 98.795065,23.332887 98.795065,22.664945 v -2.416376 c 0,-1.551981 -0.353616,-2.573538 -1.434109,-2.907509 v -0.03929 c 0.962621,-0.392907 1.414464,-1.296592 1.414464,-2.711056 v -0.844749 c 0,-2.121696 -0.962621,-3.162899 -3.20219,-3.162899 h -3.202189 z m 2.160987,-7.858134 v -3.929067 h 0.982266 c 0.766168,0 1.100139,0.432198 1.100139,1.414464 v 1.060848 c 0,1.100139 -0.491133,1.453755 -1.296592,1.453755 z"
       style="font-style:normal;font-variant:normal;font-weight:normal;font-stretch:normal;font-size:19.64533424px;font-family:'Bebas Neue';-inkscape-font-specification:'Bebas Neue, Normal';font-variant-ligatures:normal;font-variant-caps:normal;font-variant-numeric:normal;font-feature-settings:normal;text-align:start;writing-mode:lr-tb;text-anchor:start;stroke-width:1.12259877px"
       id="path841"
       inkscape:connector-curvature="0" />
    <path
       d="m 103.39882,24.531252 c 2.1217,0 3.28077,-1.257301 3.28077,-3.457579 V 13.84419 c 0,-2.200277 -1.15907,-3.457579 -3.28077,-3.457579 -2.12169,0 -3.28077,1.257302 -3.28077,3.457579 v 7.229483 c 0,2.200278 1.15908,3.457579 3.28077,3.457579 z m 0,-1.964533 c -0.68758,0 -1.11978,-0.373262 -1.11978,-1.355528 v -7.504518 c 0,-0.982267 0.4322,-1.355528 1.11978,-1.355528 0.68759,0 1.11979,0.373261 1.11979,1.355528 v 7.504518 c 0,0.982266 -0.4322,1.355528 -1.11979,1.355528 z"
       style="font-style:normal;font-variant:normal;font-weight:normal;font-stretch:normal;font-size:19.64533424px;font-family:'Bebas Neue';-inkscape-font-specification:'Bebas Neue, Normal';font-variant-ligatures:normal;font-variant-caps:normal;font-variant-numeric:normal;font-feature-settings:normal;text-align:start;writing-mode:lr-tb;text-anchor:start;stroke-width:1.12259877px"
       id="path843"
       inkscape:connector-curvature="0" />
    <path
       d="m 109.61534,24.334799 h 2.86822 l 2.08241,-13.751734 h -1.98418 l -1.41446,10.667416 h -0.0393 l -1.41447,-10.667416 h -2.18063 z"
       style="font-style:normal;font-variant:normal;font-weight:normal;font-stretch:normal;font-size:19.64533424px;font-family:'Bebas Neue';-inkscape-font-specification:'Bebas Neue, Normal';font-variant-ligatures:normal;font-variant-caps:normal;font-variant-numeric:normal;font-feature-settings:normal;text-align:start;writing-mode:lr-tb;text-anchor:start;stroke-width:1.12259877px"
       id="path845"
       inkscape:connector-curvature="0" />
    <path
       d="m 117.05049,9.6597341 h 1.63056 l 2.10205,-2.2592134 h -2.35744 z m -2.53425,14.6750649 h 2.00383 l 0.3929,-2.691411 h 2.45567 v -0.03929 l 0.39291,2.730702 h 2.16098 l -2.23956,-13.751734 h -2.92716 z m 2.65212,-4.557718 0.94298,-6.797285 h 0.0393 l 0.96262,6.797285 z"
       style="font-style:normal;font-variant:normal;font-weight:normal;font-stretch:normal;font-size:19.64533424px;font-family:'Bebas Neue';-inkscape-font-specification:'Bebas Neue, Normal';font-variant-ligatures:normal;font-variant-caps:normal;font-variant-numeric:normal;font-feature-settings:normal;text-align:start;writing-mode:lr-tb;text-anchor:start;stroke-width:1.12259877px"
       id="path847"
       inkscape:connector-curvature="0" />
    <path
       d="m 122.95177,24.334799 h 1.92524 V 14.296033 h 0.0393 l 2.59319,10.038766 h 2.21992 V 10.583065 h -1.92524 v 8.231395 h -0.0393 l -2.10205,-8.231395 h -2.71105 z"
       style="font-style:normal;font-variant:normal;font-weight:normal;font-stretch:normal;font-size:19.64533424px;font-family:'Bebas Neue';-inkscape-font-specification:'Bebas Neue, Normal';font-variant-ligatures:normal;font-variant-caps:normal;font-variant-numeric:normal;font-feature-settings:normal;text-align:start;writing-mode:lr-tb;text-anchor:start;stroke-width:1.12259877px"
       id="path849"
       inkscape:connector-curvature="0" />
    <path
       d="m 131.25653,9.6597341 h 1.63056 l 2.10205,-2.2592134 h -2.35744 z m 0.0982,14.6750649 h 2.16099 V 10.583065 h -2.16099 z"
       style="font-style:normal;font-variant:normal;font-weight:normal;font-stretch:normal;font-size:19.64533424px;font-family:'Bebas Neue';-inkscape-font-specification:'Bebas Neue, Normal';font-variant-ligatures:normal;font-variant-caps:normal;font-variant-numeric:normal;font-feature-settings:normal;text-align:start;writing-mode:lr-tb;text-anchor:start;stroke-width:1.12259877px"
       id="path851"
       inkscape:connector-curvature="0" />
  </g>
  <g
     aria-label="KAUZY OKD"
     transform="matrix(1.4853315,0,0,1.5979283,96.356053,-28.084366)"
     style="font-style:normal;font-variant:normal;font-weight:normal;font-stretch:normal;font-size:19.64533424px;line-height:125%;font-family:'Bebas Neue';-inkscape-font-specification:'Bebas Neue, Normal';font-variant-ligatures:normal;font-variant-caps:normal;font-variant-numeric:normal;font-feature-settings:normal;text-align:start;letter-spacing:0px;word-spacing:0px;writing-mode:lr-tb;text-anchor:start;fill:#000000;fill-opacity:1;stroke:none;stroke-width:1.12259877px;stroke-linecap:butt;stroke-linejoin:miter;stroke-opacity:1"
     id="text875-5">
    <path
       d="m 55.652524,42.357922 h 2.160986 v -4.38091 l 0.864395,-1.748435 1.827016,6.129345 h 2.259214 l -2.61283,-8.702883 2.573539,-5.048851 h -2.160987 l -2.750347,5.795373 v -5.795373 h -2.160986 z"
       style="font-style:normal;font-variant:normal;font-weight:normal;font-stretch:normal;font-size:19.64533424px;font-family:'Bebas Neue';-inkscape-font-specification:'Bebas Neue, Normal';font-variant-ligatures:normal;font-variant-caps:normal;font-variant-numeric:normal;font-feature-settings:normal;text-align:start;writing-mode:lr-tb;text-anchor:start;stroke-width:1.12259877px"
       id="path854"
       inkscape:connector-curvature="0" />
    <path
       d="m 63.217206,42.357922 h 2.003824 l 0.392906,-2.691411 h 2.455667 v -0.03929 l 0.392907,2.730702 h 2.160987 L 68.383928,28.606188 h -2.927154 z m 2.65212,-4.557718 0.942976,-6.797286 h 0.03929 l 0.962622,6.797286 z"
       style="font-style:normal;font-variant:normal;font-weight:normal;font-stretch:normal;font-size:19.64533424px;font-family:'Bebas Neue';-inkscape-font-specification:'Bebas Neue, Normal';font-variant-ligatures:normal;font-variant-caps:normal;font-variant-numeric:normal;font-feature-settings:normal;text-align:start;writing-mode:lr-tb;text-anchor:start;stroke-width:1.12259877px"
       id="path856"
       inkscape:connector-curvature="0" />
    <path
       d="m 74.757611,42.554375 c 2.121696,0 3.221835,-1.257301 3.221835,-3.457579 V 28.606188 H 75.89704 v 10.647771 c 0,0.982267 -0.412552,1.335883 -1.100138,1.335883 -0.687587,0 -1.100139,-0.353616 -1.100139,-1.335883 V 28.606188 h -2.160987 v 10.490608 c 0,2.200278 1.100139,3.457579 3.221835,3.457579 z"
       style="font-style:normal;font-variant:normal;font-weight:normal;font-stretch:normal;font-size:19.64533424px;font-family:'Bebas Neue';-inkscape-font-specification:'Bebas Neue, Normal';font-variant-ligatures:normal;font-variant-caps:normal;font-variant-numeric:normal;font-feature-settings:normal;text-align:start;writing-mode:lr-tb;text-anchor:start;stroke-width:1.12259877px"
       id="path858"
       inkscape:connector-curvature="0" />
    <path
       d="m 79.086339,42.357922 h 6.325798 v -1.964534 h -4.007649 l 4.007649,-9.861958 v -1.925242 h -6.129345 v 1.964533 h 3.811195 l -4.007648,9.861958 z"
       style="font-style:normal;font-variant:normal;font-weight:normal;font-stretch:normal;font-size:19.64533424px;font-family:'Bebas Neue';-inkscape-font-specification:'Bebas Neue, Normal';font-variant-ligatures:normal;font-variant-caps:normal;font-variant-numeric:normal;font-feature-settings:normal;text-align:start;writing-mode:lr-tb;text-anchor:start;stroke-width:1.12259877px"
       id="path860"
       inkscape:connector-curvature="0" />
    <path
       d="m 88.601127,42.357922 h 2.160986 v -5.85431 l 2.61283,-7.897424 h -2.102051 l -1.4734,5.048851 h -0.03929 l -1.4734,-5.048851 h -2.298504 l 2.61283,7.897424 z"
       style="font-style:normal;font-variant:normal;font-weight:normal;font-stretch:normal;font-size:19.64533424px;font-family:'Bebas Neue';-inkscape-font-specification:'Bebas Neue, Normal';font-variant-ligatures:normal;font-variant-caps:normal;font-variant-numeric:normal;font-feature-settings:normal;text-align:start;writing-mode:lr-tb;text-anchor:start;stroke-width:1.12259877px"
       id="path862"
       inkscape:connector-curvature="0" />
    <path
       d="m 100.63758,42.554375 c 2.12169,0 3.28077,-1.257301 3.28077,-3.457579 v -7.229483 c 0,-2.200277 -1.15908,-3.457579 -3.28077,-3.457579 -2.121698,0 -3.280773,1.257302 -3.280773,3.457579 v 7.229483 c 0,2.200278 1.159075,3.457579 3.280773,3.457579 z m 0,-1.964533 c -0.687588,0 -1.119786,-0.373262 -1.119786,-1.355529 v -7.504517 c 0,-0.982267 0.432198,-1.355528 1.119786,-1.355528 0.68758,0 1.11978,0.373261 1.11978,1.355528 v 7.504517 c 0,0.982267 -0.4322,1.355529 -1.11978,1.355529 z"
       style="font-style:normal;font-variant:normal;font-weight:normal;font-stretch:normal;font-size:19.64533424px;font-family:'Bebas Neue';-inkscape-font-specification:'Bebas Neue, Normal';font-variant-ligatures:normal;font-variant-caps:normal;font-variant-numeric:normal;font-feature-settings:normal;text-align:start;writing-mode:lr-tb;text-anchor:start;stroke-width:1.12259877px"
       id="path864"
       inkscape:connector-curvature="0" />
    <path
       d="m 105.37978,42.357922 h 2.16098 v -4.38091 l 0.8644,-1.748435 1.82701,6.129345 h 2.25922 l -2.61283,-8.702883 2.57354,-5.048851 h -2.16099 l -2.75035,5.795373 v -5.795373 h -2.16098 z"
       style="font-style:normal;font-variant:normal;font-weight:normal;font-stretch:normal;font-size:19.64533424px;font-family:'Bebas Neue';-inkscape-font-specification:'Bebas Neue, Normal';font-variant-ligatures:normal;font-variant-caps:normal;font-variant-numeric:normal;font-feature-settings:normal;text-align:start;writing-mode:lr-tb;text-anchor:start;stroke-width:1.12259877px"
       id="path866"
       inkscape:connector-curvature="0" />
    <path
       d="m 113.51417,42.357922 h 3.30042 c 2.16099,0 3.22183,-1.198366 3.22183,-3.398643 V 32.00483 c 0,-2.200277 -1.06084,-3.398642 -3.22183,-3.398642 h -3.30042 z m 2.16099,-1.964534 v -9.822667 h 1.10014 c 0.68758,0 1.10014,0.353616 1.10014,1.335883 v 7.150901 c 0,0.982267 -0.41256,1.335883 -1.10014,1.335883 z"
       style="font-style:normal;font-variant:normal;font-weight:normal;font-stretch:normal;font-size:19.64533424px;font-family:'Bebas Neue';-inkscape-font-specification:'Bebas Neue, Normal';font-variant-ligatures:normal;font-variant-caps:normal;font-variant-numeric:normal;font-feature-settings:normal;text-align:start;writing-mode:lr-tb;text-anchor:start;stroke-width:1.12259877px"
       id="path868"
       inkscape:connector-curvature="0" />
  </g>
</svg>
